<?xml version="1.0" encoding="utf-8"?>
<!-- Generator: Adobe Illustrator 17.1.0, SVG Export Plug-In . SVG Version: 6.00 Build 0)  -->
<!DOCTYPE svg PUBLIC "-//W3C//DTD SVG 1.1//EN" "http://www.w3.org/Graphics/SVG/1.1/DTD/svg11.dtd">
<svg version="1.1" id="Layer_1" xmlns="http://www.w3.org/2000/svg" xmlns:xlink="http://www.w3.org/1999/xlink" x="0px" y="0px"
	 viewBox="0 0 962 622" enable-background="new 0 0 962 622" xml:space="preserve">
<path fill="none" stroke="#00FF8B" stroke-width="2" stroke-miterlimit="10" d="M953.1,230.6"/>
<text transform="matrix(1 0 0 1 457.7764 224.2773)" fill="#FFFFFF" font-family="'CaxtonStd-Bold'" font-size="48">M</text>
<g>
	<text transform="matrix(1 0 0 1 471.4727 274.4998)" fill="#FFFFFF" font-family="'CaxtonStd-Bold'" font-size="48">I</text>
</g>
<g>
	<rect x="447.7" y="342.8" fill="none" width="58.7" height="68.3"/>
	<text transform="matrix(1 0 0 1 462.4161 382.4372)" fill="#FFFFFF" font-family="'CaxtonStd-Bold'" font-size="48">C</text>
</g>
<g>
	<rect x="450.6" y="395.8" fill="none" width="58.7" height="76.3"/>
	<text transform="matrix(1 0 0 1 460.8165 435.4775)" fill="#FFFFFF" font-family="'CaxtonStd-Bold'" font-size="48">A</text>
</g>
<g>
	<g>
		<text transform="matrix(1 0 0 1 558.9464 333.5)" fill="#FFFFFF" font-family="'Balto-Bold'" font-size="60">DESIGN</text>
	</g>
</g>
<g>
	<text transform="matrix(1 0 0 1 143.5665 332.2896)" fill="#FFFFFF" font-family="'Balto-Bold'" font-size="60">GRAPHIC</text>
</g>
<g>
	<line fill="none" stroke="#00FF8B" stroke-width="2" stroke-miterlimit="10" x1="961" y1="621" x2="1" y2="1"/>
	<line fill="none" stroke="#00FF8B" stroke-width="2" stroke-miterlimit="10" x1="961" y1="1" x2="1" y2="621"/>
	<rect x="1" y="1" fill="none" stroke="#00FF8B" stroke-width="2" stroke-miterlimit="10" width="960" height="620"/>
</g>
</svg>
