<?xml version="1.0" encoding="utf-8"?>
<!-- Generator: Adobe Illustrator 19.1.0, SVG Export Plug-In . SVG Version: 6.00 Build 0)  -->
<svg version="1.1" id="Layer_1" xmlns="http://www.w3.org/2000/svg" xmlns:xlink="http://www.w3.org/1999/xlink" x="0px" y="0px"
	 viewBox="0 0 130.4 111.2" style="enable-background:new 0 0 130.4 111.2;" xml:space="preserve">
<style type="text/css">
	.st0{fill:#FFFFFF;stroke:#000000;stroke-miterlimit:10;}
	.st1{fill:#FFFFFF;stroke:#000000;stroke-width:0.25;stroke-miterlimit:10;}
	.st2{fill:#29C171;}
	.st3{fill:none;stroke:#000000;stroke-miterlimit:10;}
	.st4{fill:#655822;}
	.st5{fill:#7F6D1F;}
	.st6{fill:#804418;}
	.st7{fill:#669254;}
	.st8{fill:#233688;}
	.st9{fill:#305689;}
	.st10{fill:#62CED2;}
	.st11{fill:#B8DDBE;}
	.st12{fill:#B8D497;}
	.st13{fill:#29C171;stroke:#000000;stroke-miterlimit:10;}
	.st14{fill:#62CED2;stroke:#000000;stroke-miterlimit:10;}
	.st15{fill:#29C171;stroke:#FFFFFF;stroke-miterlimit:10;}
	.st16{fill:#FFFFFF;}
</style>
<g>
	<g>
		<rect x="16.1" y="20.4" class="st16" width="113.8" height="10.7"/>
		<path d="M129.4,20.9v9.7H16.6v-9.7H129.4 M130.4,19.9H15.6v11.7h114.8V19.9L130.4,19.9z"/>
	</g>
	<g>
		<rect x="0.5" y="0.5" class="st16" width="113.8" height="10.7"/>
		<path d="M113.8,1v9.7H1V1H113.8 M114.8,0H0v11.7h114.8V0L114.8,0z"/>
	</g>
	<g>
		<rect x="0.5" y="40.3" class="st16" width="113.8" height="10.7"/>
		<path d="M113.8,40.8v9.7H1v-9.7H113.8 M114.8,39.8H0v11.7h114.8V39.8L114.8,39.8z"/>
	</g>
	<g>
		<rect x="16.1" y="60.2" class="st16" width="113.8" height="10.7"/>
		<path d="M129.4,60.7v9.7H16.6v-9.7H129.4 M130.4,59.7H15.6v11.7h114.8V59.7L130.4,59.7z"/>
	</g>
	<g>
		<rect x="0.5" y="80.1" class="st16" width="113.8" height="10.7"/>
		<path d="M113.8,80.6v9.7H1v-9.7H113.8 M114.8,79.6H0v11.7h114.8V79.6L114.8,79.6z"/>
	</g>
	<g>
		<rect x="16.1" y="100" class="st16" width="113.8" height="10.7"/>
		<path d="M129.4,100.5v9.7H16.6v-9.7H129.4 M130.4,99.5H15.6v11.7h114.8V99.5L130.4,99.5z"/>
	</g>
</g>
</svg>
