<?xml version="1.0" encoding="utf-8"?>
<!-- Generator: Adobe Illustrator 19.1.0, SVG Export Plug-In . SVG Version: 6.00 Build 0)  -->
<svg version="1.1" id="Layer_1" xmlns="http://www.w3.org/2000/svg" xmlns:xlink="http://www.w3.org/1999/xlink" x="0px" y="0px"
	 viewBox="0 0 133.4 132.7" style="enable-background:new 0 0 133.4 132.7;" xml:space="preserve">
<style type="text/css">
	.st0{fill:#FFFFFF;stroke:#000000;stroke-miterlimit:10;}
	.st1{fill:#FFFFFF;stroke:#000000;stroke-width:0.25;stroke-miterlimit:10;}
	.st2{fill:#29C171;}
	.st3{fill:none;stroke:#000000;stroke-miterlimit:10;}
	.st4{fill:#655822;}
	.st5{fill:#7F6D1F;}
	.st6{fill:#804418;}
	.st7{fill:#669254;}
	.st8{fill:#233688;}
	.st9{fill:#305689;}
	.st10{fill:#62CED2;}
	.st11{fill:#B8DDBE;}
	.st12{fill:#B8D497;}
	.st13{fill:#29C171;stroke:#000000;stroke-miterlimit:10;}
	.st14{fill:#62CED2;stroke:#000000;stroke-miterlimit:10;}
	.st15{fill:#29C171;stroke:#FFFFFF;stroke-miterlimit:10;}
	.st16{fill:#FFFFFF;}
</style>
<polygon class="st5" points="67.3,26.4 80.9,1.7 83.2,29.8 105.7,12.7 96.4,39.4 123.9,32.9 104.6,53.5 132.3,58.8 106.3,69.7 
	129.4,85.8 101.2,85.2 115.9,109.4 90.3,97.3 93.9,125.3 75.4,104 67.3,131 59.1,104 40.7,125.3 44.2,97.3 18.7,109.4 33.3,85.2 
	5.1,85.8 28.3,69.7 2.3,58.8 30,53.5 10.7,32.9 38.1,39.4 28.9,12.7 51.3,29.8 53.7,1.7 "/>
</svg>
