<?xml version="1.0" encoding="utf-8"?>
<!-- Generator: Adobe Illustrator 19.1.0, SVG Export Plug-In . SVG Version: 6.00 Build 0)  -->
<svg version="1.1" id="Layer_1" xmlns="http://www.w3.org/2000/svg" xmlns:xlink="http://www.w3.org/1999/xlink" x="0px" y="0px"
	 viewBox="0 0 133.4 132.7" style="enable-background:new 0 0 133.4 132.7;" xml:space="preserve">
<style type="text/css">
	.st0{fill:#FFFFFF;stroke:#000000;stroke-miterlimit:10;}
	.st1{fill:#FFFFFF;stroke:#000000;stroke-width:0.25;stroke-miterlimit:10;}
	.st2{fill:#29C171;}
	.st3{fill:none;stroke:#000000;stroke-miterlimit:10;}
	.st4{fill:#655822;}
	.st5{fill:#7F6D1F;}
	.st6{fill:#804418;}
	.st7{fill:#669254;}
	.st8{fill:#233688;}
	.st9{fill:#305689;}
	.st10{fill:#62CED2;}
	.st11{fill:#B8DDBE;}
	.st12{fill:#B8D497;}
	.st13{fill:#29C171;stroke:#000000;stroke-miterlimit:10;}
	.st14{fill:#62CED2;stroke:#000000;stroke-miterlimit:10;}
	.st15{fill:#29C171;stroke:#FFFFFF;stroke-miterlimit:10;}
	.st16{fill:#FFFFFF;}
</style>
<polygon class="st6" points="66.2,26.4 79.7,1.7 82.1,29.8 104.6,12.7 95.3,39.4 122.8,32.9 103.5,53.5 131.2,58.8 105.2,69.7 
	128.3,85.8 100.1,85.2 114.7,109.4 89.2,97.3 92.7,125.3 74.3,104 66.2,131 58,104 39.6,125.3 43.1,97.3 17.6,109.4 32.2,85.2 
	4,85.8 27.2,69.7 1.2,58.8 28.9,53.5 9.6,32.9 37,39.4 27.7,12.7 50.2,29.8 52.6,1.7 "/>
</svg>
