<?xml version="1.0" encoding="utf-8"?>
<!-- Generator: Adobe Illustrator 19.1.0, SVG Export Plug-In . SVG Version: 6.00 Build 0)  -->
<svg version="1.1" id="Layer_1" xmlns="http://www.w3.org/2000/svg" xmlns:xlink="http://www.w3.org/1999/xlink" x="0px" y="0px"
	 viewBox="0 0 133.4 132.7" style="enable-background:new 0 0 133.4 132.7;" xml:space="preserve">
<style type="text/css">
	.st0{fill:#FFFFFF;stroke:#000000;stroke-miterlimit:10;}
	.st1{fill:#FFFFFF;stroke:#000000;stroke-width:0.25;stroke-miterlimit:10;}
	.st2{fill:#29C171;}
	.st3{fill:none;stroke:#000000;stroke-miterlimit:10;}
	.st4{fill:#655822;}
	.st5{fill:#7F6D1F;}
	.st6{fill:#804418;}
	.st7{fill:#669254;}
	.st8{fill:#233688;}
	.st9{fill:#305689;}
	.st10{fill:#62CED2;}
	.st11{fill:#B8DDBE;}
	.st12{fill:#B8D497;}
	.st13{fill:#29C171;stroke:#000000;stroke-miterlimit:10;}
	.st14{fill:#62CED2;stroke:#000000;stroke-miterlimit:10;}
	.st15{fill:#29C171;stroke:#FFFFFF;stroke-miterlimit:10;}
	.st16{fill:#FFFFFF;}
</style>
<polygon class="st9" points="66.7,26.4 80.3,1.7 82.7,29.8 105.1,12.7 95.9,39.4 123.3,32.9 104,53.5 131.7,58.8 105.7,69.7 
	128.9,85.8 100.7,85.2 115.3,109.4 89.8,97.3 93.3,125.3 74.9,104 66.7,131 58.6,104 40.1,125.3 43.7,97.3 18.1,109.4 32.8,85.2 
	4.6,85.8 27.7,69.7 1.7,58.8 29.4,53.5 10.1,32.9 37.6,39.4 28.3,12.7 50.8,29.8 53.1,1.7 "/>
</svg>
