<?xml version="1.0" encoding="utf-8"?>
<!-- Generator: Adobe Illustrator 19.1.0, SVG Export Plug-In . SVG Version: 6.00 Build 0)  -->
<svg version="1.1" xmlns="http://www.w3.org/2000/svg" xmlns:xlink="http://www.w3.org/1999/xlink" x="0px" y="0px"
	 viewBox="0 0 57.1 33.9" style="enable-background:new 0 0 57.1 33.9;" xml:space="preserve">
<style type="text/css">
	.st0{display:none;}
	.st1{display:inline;fill:none;stroke:#000000;stroke-width:19;stroke-miterlimit:10;}
	.st2{fill:none;stroke:#000000;stroke-width:6;stroke-miterlimit:10;}
	.st3{display:inline;fill:none;stroke:#000000;stroke-width:6;stroke-miterlimit:10;}
	.st4{fill:#2D2D2D;}
	.st5{fill:#050505;}
	.st6{fill:#FFFFFF;}
	.st7{fill:none;stroke:#000000;stroke-width:10;stroke-miterlimit:10;}
	.st8{fill:none;stroke:#000000;stroke-miterlimit:10;}
	.st9{fill:none;stroke:#000000;stroke-linejoin:round;stroke-miterlimit:10;}
	.st10{fill:none;stroke:#000000;stroke-linecap:round;stroke-linejoin:round;stroke-miterlimit:10;}
	.st11{fill:none;stroke:#000000;stroke-linecap:round;stroke-miterlimit:10;}
	.st12{display:inline;}
</style>
<g id="lines" class="st0">
	<polygon class="st2" points="-2411.9,-7904.9 10602.1,-7904.9 10602.1,4875.1 10409.7,4868.9 8973.3,4766.5 7540.8,4616.8 
		6111.3,4438.8 4686.5,4222.5 3263.8,3992.5 1843.9,3744 424.9,3491.7 -993.3,3236.6 -2411.9,2985.1 	"/>
</g>
<g id="table_x5F_3">
	<g>
		<g>
			<path d="M15.4,33.9H2.8c-1.6,0-2.8-1.3-2.8-2.8V20.3c0-1.6,1.3-2.8,2.8-2.8h12.6c1.6,0,2.8,1.3,2.8,2.8v10.8
				C18.3,32.7,17,33.9,15.4,33.9z M2.8,17.7c-1.4,0-2.6,1.2-2.6,2.6v10.8c0,1.4,1.2,2.6,2.6,2.6h12.6c1.4,0,2.6-1.2,2.6-2.6V20.3
				c0-1.4-1.2-2.6-2.6-2.6H2.8z"/>
		</g>
		<g>
			<path d="M34.9,33.9H22.3c-1.6,0-2.8-1.3-2.8-2.8V20.3c0-1.6,1.3-2.8,2.8-2.8h12.6c1.6,0,2.8,1.3,2.8,2.8v10.8
				C37.8,32.7,36.5,33.9,34.9,33.9z M22.3,17.7c-1.4,0-2.6,1.2-2.6,2.6v10.8c0,1.4,1.2,2.6,2.6,2.6h12.6c1.4,0,2.6-1.2,2.6-2.6V20.3
				c0-1.4-1.2-2.6-2.6-2.6H22.3z"/>
		</g>
		<g>
			<path d="M34.9,16.5H22.3c-1.6,0-2.8-1.3-2.8-2.8V2.8c0-1.6,1.3-2.8,2.8-2.8h12.6c1.6,0,2.8,1.3,2.8,2.8v10.8
				C37.8,15.2,36.5,16.5,34.9,16.5z M22.3,0.3c-1.4,0-2.6,1.2-2.6,2.6v10.8c0,1.4,1.2,2.6,2.6,2.6h12.6c1.4,0,2.6-1.2,2.6-2.6V2.8
				c0-1.4-1.2-2.6-2.6-2.6H22.3z"/>
		</g>
		<g>
			<path d="M54.3,33.9H41.7c-1.6,0-2.8-1.3-2.8-2.8V20.3c0-1.6,1.3-2.8,2.8-2.8h12.6c1.6,0,2.8,1.3,2.8,2.8v10.8
				C57.1,32.7,55.8,33.9,54.3,33.9z M41.7,17.7c-1.4,0-2.6,1.2-2.6,2.6v10.8c0,1.4,1.2,2.6,2.6,2.6h12.6c1.4,0,2.6-1.2,2.6-2.6V20.3
				c0-1.4-1.2-2.6-2.6-2.6H41.7z"/>
		</g>
		<g>
			<path d="M10.3,27.8l-2.6-1.9c0,0,0-0.1,0-0.1s0-0.1,0-0.1l2.6-1.9l0.2,0.2L8,25.7l2.4,1.8L10.3,27.8z"/>
		</g>
		<g>
			<path d="M46.7,27.8l-0.1-0.2l2.4-1.8l-2.4-1.8l0.1-0.2l2.6,1.9c0,0,0.1,0.1,0.1,0.1s0,0.1-0.1,0.1L46.7,27.8z"/>
		</g>
		<g>
			<path d="M28.6,27.1C28.6,27.1,28.5,27.1,28.6,27.1l-2-2.6l0.2-0.1l1.8,2.4l1.8-2.4l0.2,0.1L28.6,27.1
				C28.7,27.1,28.7,27.1,28.6,27.1z"/>
		</g>
		<g>
			<path d="M26.8,9.6l-0.2-0.1l1.9-2.6c0-0.1,0.2-0.1,0.2,0l1.9,2.6l-0.2,0.1l-1.8-2.4L26.8,9.6z"/>
		</g>
	</g>
</g>
<g id="solid_x5F_outline" class="st0">
	<polygon class="st12" points="-2411.9,-7904.9 10602.1,-7904.9 10602.1,4875.1 10409.7,4868.9 8973.3,4766.5 7540.8,4616.8 
		6111.3,4438.8 4686.5,4222.5 3263.8,3992.5 1843.9,3744 424.9,3491.7 -993.3,3236.6 -2411.9,2985.1 	"/>
</g>
</svg>
