<?xml version="1.0" encoding="utf-8"?>
<!-- Generator: Adobe Illustrator 19.1.0, SVG Export Plug-In . SVG Version: 6.00 Build 0)  -->
<svg version="1.1" xmlns="http://www.w3.org/2000/svg" xmlns:xlink="http://www.w3.org/1999/xlink" x="0px" y="0px"
	 viewBox="0 0 8.6 11.9" style="enable-background:new 0 0 8.6 11.9;" xml:space="preserve">
<style type="text/css">
	.st0{display:none;}
	.st1{display:inline;fill:none;stroke:#000000;stroke-width:19;stroke-miterlimit:10;}
	.st2{fill:none;stroke:#000000;stroke-width:6;stroke-miterlimit:10;}
	.st3{display:inline;fill:none;stroke:#000000;stroke-width:6;stroke-miterlimit:10;}
	.st4{fill:#2D2D2D;}
	.st5{fill:#050505;}
	.st6{fill:#FFFFFF;}
	.st7{fill:none;stroke:#000000;stroke-width:10;stroke-miterlimit:10;}
	.st8{fill:none;stroke:#000000;stroke-miterlimit:10;}
	.st9{fill:none;stroke:#000000;stroke-linejoin:round;stroke-miterlimit:10;}
	.st10{fill:none;stroke:#000000;stroke-linecap:round;stroke-linejoin:round;stroke-miterlimit:10;}
	.st11{fill:none;stroke:#000000;stroke-linecap:round;stroke-miterlimit:10;}
	.st12{display:inline;}
</style>
<g id="lines" class="st0">
	<polygon class="st2" points="-2339.2,-8095.6 10674.8,-8095.6 10674.8,4684.4 10482.4,4678.3 9046,4575.9 7613.5,4426.2 
		6184,4248.2 4759.2,4031.9 3336.4,3801.8 1916.6,3553.4 497.6,3301 -920.7,3045.9 -2339.2,2794.4 	"/>
</g>
<g id="table_x5F_3">
	<g>
		<g>
			<path d="M2.7,11.9C2.7,11.9,2.7,11.9,2.7,11.9L0.9,11c0,0-0.1,0-0.1-0.1c0,0,0-0.1,0-0.1L2,8.7H0.1C0.1,8.7,0,8.7,0,8.6
				c0,0,0-0.1,0-0.1l5.6-5.6c0,0,0.1,0,0.1,0c0,0,0.1,0.1,0.1,0.1v7.8c0,0.1,0,0.1-0.1,0.1c0,0-0.1,0-0.1,0L4.1,9.5l-1.3,2.4
				C2.8,11.9,2.7,11.9,2.7,11.9z M1.2,10.9l1.5,0.8L4,9.2c0,0,0.1-0.1,0.1-0.1c0,0,0.1,0,0.1,0l1.3,1.3V3.3L0.4,8.4h1.8
				c0,0,0.1,0,0.1,0.1c0,0,0,0.1,0,0.1L1.2,10.9z"/>
		</g>
		<g>
			<path d="M5.3,2.3c0,0-0.1,0-0.1-0.1L4.4,0.4c0-0.1,0-0.1,0.1-0.2c0.1,0,0.1,0,0.2,0.1l0.8,1.8C5.4,2.2,5.4,2.2,5.3,2.3
				C5.3,2.3,5.3,2.3,5.3,2.3z"/>
		</g>
		<g>
			<path d="M4.9,2.6C4.9,2.6,4.9,2.6,4.9,2.6L3.3,1.4c-0.1,0-0.1-0.1,0-0.2c0-0.1,0.1-0.1,0.2,0L5,2.3c0.1,0,0.1,0.1,0,0.2
				C5,2.5,5,2.6,4.9,2.6z"/>
		</g>
		<g>
			<path d="M4.8,3C4.8,3,4.8,3,4.8,3L2.8,2.8c-0.1,0-0.1-0.1-0.1-0.1c0-0.1,0.1-0.1,0.1-0.1l1.9,0.2c0.1,0,0.1,0.1,0.1,0.1
				C4.9,3,4.8,3,4.8,3z"/>
		</g>
		<g>
			<path d="M5.7,5.9c-0.1,0-0.1-0.1-0.1-0.1V3.9c0-0.1,0.1-0.1,0.1-0.1c0.1,0,0.1,0.1,0.1,0.1v1.9C5.8,5.9,5.8,5.9,5.7,5.9z"/>
		</g>
		<g>
			<path d="M8,4.7C8,4.7,7.9,4.7,8,4.7L6.3,3.6c-0.1,0-0.1-0.1,0-0.2c0-0.1,0.1-0.1,0.2,0l1.6,1.1c0.1,0,0.1,0.1,0,0.2
				C8.1,4.7,8,4.7,8,4.7z"/>
		</g>
		<g>
			<path d="M8.5,3.3C8.5,3.3,8.5,3.3,8.5,3.3L6.6,3.2C6.5,3.2,6.4,3.1,6.4,3c0-0.1,0.1-0.1,0.1-0.1l1.9,0.2c0.1,0,0.1,0.1,0.1,0.1
				C8.6,3.3,8.6,3.3,8.5,3.3z"/>
		</g>
		<g>
			<path d="M6.5,2.7c0,0-0.1,0-0.1-0.1c0-0.1,0-0.1,0.1-0.2l1.8-0.8c0.1,0,0.1,0,0.2,0.1c0,0.1,0,0.1-0.1,0.2L6.5,2.7
				C6.5,2.7,6.5,2.7,6.5,2.7z"/>
		</g>
		<g>
			<path d="M6.2,2.3C6.2,2.3,6.1,2.3,6.2,2.3C6.1,2.3,6,2.2,6.1,2.2l1.1-1.6c0-0.1,0.1-0.1,0.2,0c0.1,0,0.1,0.1,0,0.2L6.3,2.3
				C6.3,2.3,6.2,2.3,6.2,2.3z"/>
		</g>
		<g>
			<path d="M5.7,2.2C5.7,2.2,5.7,2.2,5.7,2.2c-0.1,0-0.1-0.1-0.1-0.1l0.2-1.9C5.8,0,5.9,0,5.9,0C6,0,6.1,0.1,6,0.1L5.9,2.1
				C5.9,2.1,5.8,2.2,5.7,2.2z"/>
		</g>
	</g>
</g>
<g id="solid_x5F_outline" class="st0">
	<polygon class="st12" points="-2339.2,-8095.6 10674.8,-8095.6 10674.8,4684.4 10482.4,4678.3 9046,4575.9 7613.5,4426.2 
		6184,4248.2 4759.2,4031.9 3336.4,3801.8 1916.6,3553.4 497.6,3301 -920.7,3045.9 -2339.2,2794.4 	"/>
</g>
</svg>
