<?xml version="1.0" encoding="utf-8"?>
<!-- Generator: Adobe Illustrator 19.1.0, SVG Export Plug-In . SVG Version: 6.00 Build 0)  -->
<svg version="1.1" xmlns="http://www.w3.org/2000/svg" xmlns:xlink="http://www.w3.org/1999/xlink" x="0px" y="0px"
	 viewBox="0 0 18.3 16.5" style="enable-background:new 0 0 18.3 16.5;" xml:space="preserve">
<style type="text/css">
	.st0{display:none;}
	.st1{display:inline;fill:none;stroke:#000000;stroke-width:19;stroke-miterlimit:10;}
	.st2{fill:none;stroke:#000000;stroke-width:6;stroke-miterlimit:10;}
	.st3{display:inline;fill:none;stroke:#000000;stroke-width:6;stroke-miterlimit:10;}
	.st4{fill:#2D2D2D;}
	.st5{fill:#050505;}
	.st6{fill:#FFFFFF;}
	.st7{fill:none;stroke:#000000;stroke-width:10;stroke-miterlimit:10;}
	.st8{fill:none;stroke:#000000;stroke-miterlimit:10;}
	.st9{fill:none;stroke:#000000;stroke-linejoin:round;stroke-miterlimit:10;}
	.st10{fill:none;stroke:#000000;stroke-linecap:round;stroke-linejoin:round;stroke-miterlimit:10;}
	.st11{fill:none;stroke:#000000;stroke-linecap:round;stroke-miterlimit:10;}
	.st12{display:inline;}
</style>
<g id="lines" class="st0">
	<polygon class="st2" points="-2326.8,-8333.9 10687.2,-8333.9 10687.2,4446.1 10494.8,4440 9058.4,4337.6 7626,4187.9 
		6196.5,4009.9 4771.6,3793.6 3348.9,3563.6 1929,3315.1 510.1,3062.8 -908.2,2807.7 -2326.8,2556.1 	"/>
</g>
<g id="table_x5F_3">
	<g>
		<g>
			<path d="M15.4,16.5H2.8c-1.6,0-2.8-1.3-2.8-2.8V2.8C0,1.3,1.3,0,2.8,0h12.6c1.6,0,2.8,1.3,2.8,2.8v10.8
				C18.3,15.2,17,16.5,15.4,16.5z M2.8,0.3c-1.4,0-2.6,1.2-2.6,2.6v10.8c0,1.4,1.2,2.6,2.6,2.6h12.6c1.4,0,2.6-1.2,2.6-2.6V2.8
				c0-1.4-1.2-2.6-2.6-2.6H2.8z"/>
		</g>
		<g>
			<path d="M5.6,6.6h1.7v0.3H6v1h1.1v0.3H6v1h1.4v0.3H5.6V6.6z"/>
			<path d="M7.7,8.6h0.3c0,0.3,0.2,0.6,0.8,0.6c0.4,0,0.7-0.2,0.7-0.5c0-0.3-0.1-0.5-0.7-0.5c-0.6-0.1-1-0.3-1-0.8
				c0-0.4,0.4-0.8,0.9-0.8c0.6,0,0.9,0.3,1,0.8H9.4C9.4,7,9.2,6.9,8.8,6.9c-0.4,0-0.6,0.2-0.6,0.5c0,0.3,0.1,0.4,0.7,0.5
				c0.6,0.1,1,0.3,1,0.8c0,0.5-0.4,0.8-1,0.8C8.1,9.5,7.8,9.1,7.7,8.6z"/>
			<path d="M10.3,8.1L10.3,8.1c0-0.9,0.6-1.5,1.3-1.5c0.6,0,1.1,0.3,1.2,0.9h-0.3c-0.1-0.4-0.3-0.7-0.8-0.7c-0.6,0-1,0.5-1,1.2v0
				c0,0.7,0.4,1.2,1,1.2c0.5,0,0.8-0.2,0.9-0.7h0.3c-0.1,0.7-0.6,1-1.2,1C10.8,9.5,10.3,9,10.3,8.1z"/>
		</g>
	</g>
</g>
<g id="solid_x5F_outline" class="st0">
	<polygon class="st12" points="-2326.8,-8333.9 10687.2,-8333.9 10687.2,4446.1 10494.8,4440 9058.4,4337.6 7626,4187.9 
		6196.5,4009.9 4771.6,3793.6 3348.9,3563.6 1929,3315.1 510.1,3062.8 -908.2,2807.7 -2326.8,2556.1 	"/>
</g>
</svg>
